<svg width="29" height="13" viewBox="0 0 29 13" fill="none" xmlns="http://www.w3.org/2000/svg">
<path d="M13.751 9.61381H12.7025V1.45556H15.482C16.1864 1.45556 16.7871 1.69037 17.2785 2.15999C17.7809 2.62961 18.0321 3.20298 18.0321 3.8801C18.0321 4.57361 17.7809 5.14698 17.2785 5.61114C16.7925 6.07529 16.1919 6.30464 15.482 6.30464H13.751V9.61381ZM13.751 2.46033V5.30534H15.5038C15.9188 5.30534 16.2683 5.16336 16.5414 4.88487C16.8198 4.60637 16.9618 4.26781 16.9618 3.88556C16.9618 3.50878 16.8198 3.17568 16.5414 2.89718C16.2683 2.60777 15.9243 2.46579 15.5038 2.46579H13.751V2.46033Z" fill="#3C4043"/>
<path d="M20.7732 3.84734C21.5487 3.84734 22.1603 4.05484 22.608 4.46986C23.0558 4.88487 23.2797 5.45278 23.2797 6.17359V9.61381H22.2804V8.8384H22.2367C21.8053 9.47729 21.2265 9.79401 20.5057 9.79401C19.8886 9.79401 19.3753 9.61381 18.9603 9.24795C18.5453 8.88208 18.3378 8.42885 18.3378 7.88278C18.3378 7.30395 18.5562 6.84525 18.9931 6.50669C19.4299 6.16266 20.0142 5.99338 20.7405 5.99338C21.363 5.99338 21.8763 6.10806 22.2749 6.33741V6.09714C22.2749 5.73127 22.1329 5.42547 21.8435 5.16882C21.5541 4.91217 21.2156 4.78657 20.8279 4.78657C20.2436 4.78657 19.7794 5.03231 19.4408 5.52923L18.518 4.95039C19.0258 4.2132 19.7794 3.84734 20.7732 3.84734ZM19.419 7.89916C19.419 8.17219 19.5337 8.40154 19.7685 8.58174C19.9978 8.76195 20.2709 8.85478 20.5821 8.85478C21.0244 8.85478 21.4176 8.69096 21.7616 8.36332C22.1056 8.03568 22.2804 7.65343 22.2804 7.21112C21.9527 6.95446 21.4995 6.82341 20.9152 6.82341C20.4893 6.82341 20.1343 6.92716 19.8504 7.12921C19.561 7.34217 19.419 7.59882 19.419 7.89916Z" fill="#3C4043"/>
<path d="M28.9807 4.02759L25.4858 12.0657H24.4046L25.7043 9.25346L23.3999 4.02759H24.5412L26.2012 8.03573H26.223L27.8394 4.02759H28.9807Z" fill="#3C4043"/>
<path d="M9.58059 5.64391C9.58059 5.30207 9.55001 4.97497 9.49322 4.66044H5.09849V6.46246L7.6295 6.46301C7.52684 7.06259 7.19647 7.57371 6.69027 7.91445V9.08358H8.19686C9.07657 8.2694 9.58059 7.06587 9.58059 5.64391Z" fill="#4285F4"/>
<path d="M6.6908 7.91451C6.27143 8.19737 5.73137 8.36283 5.09957 8.36283C3.87912 8.36283 2.84378 7.54045 2.473 6.43194H0.918898V7.63765C1.68885 9.16555 3.27135 10.214 5.09957 10.214C6.36316 10.214 7.42471 9.79844 8.1974 9.08309L6.6908 7.91451Z" fill="#34A853"/>
<path d="M2.32661 5.53741C2.32661 5.22615 2.37848 4.92527 2.47295 4.64241V3.43669H0.918851C0.600495 4.06849 0.421387 4.78165 0.421387 5.53741C0.421387 6.29317 0.601041 7.00633 0.918851 7.63813L2.47295 6.43242C2.37848 6.14955 2.32661 5.84867 2.32661 5.53741Z" fill="#FABB05"/>
<path d="M5.09957 2.71152C5.78925 2.71152 6.40685 2.94906 6.89448 3.41322L8.22961 2.07917C7.41871 1.32396 6.36153 0.860352 5.09957 0.860352C3.27189 0.860352 1.6888 1.90879 0.918851 3.43669L2.47295 4.64241C2.84373 3.53389 3.87912 2.71152 5.09957 2.71152Z" fill="#E94235"/>
</svg>
