<svg width="26" height="16" viewBox="0 0 26 16" fill="none" xmlns="http://www.w3.org/2000/svg">
<path d="M16.2699 1.84888H9.40663V14.1824H16.2699V1.84888Z" fill="#FF5F00"/>
<path d="M9.84245 8.01562C9.84137 6.82782 10.1105 5.65533 10.6296 4.58693C11.1486 3.51853 11.9039 2.58222 12.8383 1.84887C11.6812 0.939353 10.2915 0.373738 8.82815 0.216673C7.36478 0.0596076 5.88674 0.317425 4.56296 0.960668C3.23919 1.60391 2.1231 2.60663 1.34226 3.85419C0.561418 5.10176 0.147339 6.54385 0.147339 8.01562C0.147339 9.4874 0.561418 10.9295 1.34226 12.1771C2.1231 13.4246 3.23919 14.4273 4.56296 15.0706C5.88674 15.7138 7.36478 15.9716 8.82815 15.8146C10.2915 15.6575 11.6812 15.0919 12.8383 14.1824C11.9039 13.449 11.1486 12.5127 10.6296 11.4443C10.1105 10.3759 9.84138 9.20343 9.84245 8.01562Z" fill="#EB001B"/>
<path d="M25.5289 8.01562C25.5289 9.48738 25.1149 10.9295 24.3341 12.177C23.5533 13.4246 22.4372 14.4273 21.1135 15.0706C19.7897 15.7138 18.3117 15.9716 16.8484 15.8146C15.385 15.6575 13.9954 15.0919 12.8383 14.1824C13.7719 13.4483 14.5266 12.5118 15.0455 11.4436C15.5645 10.3754 15.8341 9.20324 15.8341 8.01562C15.8341 6.82801 15.5645 5.65589 15.0455 4.58765C14.5266 3.51942 13.7719 2.58296 12.8383 1.84887C13.9954 0.939352 15.385 0.373734 16.8484 0.216671C18.3117 0.0596076 19.7897 0.317436 21.1135 0.960686C22.4372 1.60394 23.5533 2.60665 24.3341 3.85422C25.1149 5.10179 25.5289 6.54387 25.5289 8.01562Z" fill="#F79E1B"/>
<path d="M24.7805 12.8761V12.6236H24.8824V12.5721H24.6231V12.6236H24.7249V12.8761H24.7805ZM25.284 12.8761V12.5716H25.2045L25.1131 12.781L25.0216 12.5716H24.9421V12.8761H24.9982V12.6464L25.0839 12.8444H25.1421L25.2279 12.6459V12.8761H25.284Z" fill="#F79E1B"/>
</svg>
