<svg width="35" height="10" viewBox="0 0 35 10" fill="none" xmlns="http://www.w3.org/2000/svg">
<path fill-rule="evenodd" clip-rule="evenodd" d="M4.42569 0.646484H1.7382C1.55429 0.646484 1.39788 0.78013 1.3692 0.961599L0.282238 7.85234C0.260634 7.98835 0.365947 8.1109 0.503883 8.1109H1.78692C1.97083 8.1109 2.12724 7.97726 2.15592 7.79543L2.44908 5.93691C2.47736 5.75489 2.63416 5.62143 2.81768 5.62143H3.66845C5.4388 5.62143 6.46045 4.76482 6.72742 3.06741C6.84762 2.3248 6.73251 1.7413 6.38462 1.33254C6.00273 0.883955 5.32514 0.646484 4.42569 0.646484ZM4.73575 3.16323C4.58881 4.12749 3.85198 4.12749 3.13953 4.12749H2.73398L3.01849 2.32662C3.03538 2.21788 3.12969 2.13769 3.23973 2.13769H3.4256C3.91092 2.13769 4.36877 2.13769 4.60536 2.41426C4.7463 2.57937 4.78958 2.82448 4.73575 3.16323ZM12.4593 3.13232H11.1723C11.0626 3.13232 10.9679 3.21251 10.951 3.32143L10.8941 3.68127L10.804 3.5509C10.5254 3.1465 9.90422 3.0114 9.2841 3.0114C7.86182 3.0114 6.64722 4.0884 6.41063 5.59925C6.28769 6.35276 6.46246 7.07337 6.88999 7.57595C7.28225 8.03799 7.84345 8.23055 8.51104 8.23055C9.6569 8.23055 10.2925 7.49376 10.2925 7.49376L10.235 7.85143C10.2134 7.98817 10.3187 8.11072 10.4558 8.11072H11.6151C11.7995 8.11072 11.955 7.97707 11.9841 7.79524L12.6797 3.39089C12.7017 3.25542 12.5968 3.13232 12.4593 3.13232ZM10.6653 5.63688C10.5411 6.37203 9.95751 6.86553 9.21336 6.86553C8.83965 6.86553 8.54086 6.7457 8.34919 6.51859C8.15897 6.29312 8.08659 5.97201 8.14715 5.61452C8.26317 4.88555 8.85656 4.37606 9.58944 4.37606C9.95478 4.37606 10.2519 4.49734 10.4476 4.72645C10.6436 4.95792 10.7215 5.28085 10.6653 5.63688ZM18.0202 3.13214H19.3135C19.4947 3.13214 19.6003 3.33525 19.4974 3.4838L15.196 9.69194C15.1263 9.79249 15.0116 9.85232 14.889 9.85232H13.5973C13.4155 9.85232 13.3093 9.64757 13.4146 9.49865L14.7539 7.60832L13.3294 3.42834C13.2802 3.28306 13.3875 3.13214 13.542 3.13214H14.8128C14.978 3.13214 15.1236 3.24051 15.1713 3.39852L15.9272 5.92309L17.711 3.29597C17.7809 3.19342 17.8969 3.13214 18.0202 3.13214Z" fill="#253B80"/>
<path fill-rule="evenodd" clip-rule="evenodd" d="M32.0427 7.85172L33.1457 0.834976C33.1626 0.726058 33.257 0.645871 33.3666 0.645508H34.6083C34.7455 0.645508 34.8507 0.768426 34.8291 0.904437L33.7414 7.79481C33.7131 7.97664 33.5567 8.11029 33.3725 8.11029H32.2635C32.1264 8.11029 32.0211 7.98773 32.0427 7.85172ZM23.5958 0.645869H20.9078C20.7243 0.645869 20.5679 0.779516 20.5392 0.960985L19.4523 7.85172C19.4306 7.98773 19.5359 8.11029 19.6732 8.11029H21.0524C21.1806 8.11029 21.2903 8.01683 21.3103 7.88954L21.6187 5.9363C21.6471 5.75428 21.8038 5.62082 21.9873 5.62082H22.8377C24.6084 5.62082 25.6298 4.7642 25.897 3.06679C26.0176 2.32419 25.9017 1.74068 25.554 1.33192C25.1723 0.883343 24.4953 0.645869 23.5958 0.645869ZM23.9059 3.16262C23.7593 4.12688 23.0224 4.12688 22.3096 4.12688H21.9044L22.1893 2.32601C22.2063 2.21727 22.2997 2.13708 22.4101 2.13708H22.596C23.081 2.13708 23.5393 2.13708 23.7757 2.41365C23.9168 2.57875 23.9597 2.82387 23.9059 3.16262ZM31.6287 3.13171H30.3426C30.232 3.13171 30.1382 3.21189 30.1216 3.32081L30.0647 3.68066L29.9743 3.55029C29.6957 3.14589 29.0749 3.01079 28.4548 3.01079C27.0325 3.01079 25.8182 4.08779 25.5817 5.59863C25.4591 6.35215 25.6331 7.07275 26.0607 7.57534C26.4536 8.03737 27.0141 8.22994 27.6817 8.22994C28.8276 8.22994 29.463 7.49315 29.463 7.49315L29.4057 7.85082C29.384 7.98755 29.4893 8.11011 29.6274 8.11011H30.7861C30.9696 8.11011 31.126 7.97646 31.1548 7.79463L31.8507 3.39027C31.872 3.25481 31.7667 3.13171 31.6287 3.13171ZM29.8349 5.63627C29.7114 6.37142 29.1271 6.86492 28.3828 6.86492C28.0098 6.86492 27.7104 6.74509 27.5186 6.51798C27.3284 6.29251 27.2569 5.97139 27.3167 5.61391C27.4333 4.88494 28.026 4.37544 28.7588 4.37544C29.1243 4.37544 29.4213 4.49673 29.6172 4.72584C29.8139 4.95731 29.8918 5.28024 29.8349 5.63627Z" fill="#179BD7"/>
</svg>
