<svg width="195" height="32" viewBox="0 0 195 32" fill="none" xmlns="http://www.w3.org/2000/svg">
<g clip-path="url(#clip0_22_367)">
<path fill-rule="evenodd" clip-rule="evenodd" d="M0.481689 0.901872L3.41386 4.2086V28.4108L1.24066 31.5775L14.5501 31.5979L12.1512 28.684L11.9021 19.968L24.7353 20.0376C28.6251 18.7426 32.6238 15.9816 32.8159 10.3997C32.7545 4.99044 29.452 1.52099 25.6177 0.830727L0.481689 0.901872ZM11.4265 2.44965V17.9979L21.2728 18.069C23.5131 16.2624 25.2115 14.8788 25.1436 10.5413C25.1115 7.00445 24.3649 3.92024 21.0689 2.45041L11.4265 2.44965ZM38.9753 0.725524L41.9075 4.03301V28.2352L39.7343 31.4034L53.043 31.4223L50.6441 28.5084L50.395 19.7924H50.4483L64.1982 31.5207L75.6091 31.4276L65.1946 22.4194H56.5004L53.436 19.809L63.2282 19.862C67.118 18.567 71.1159 15.806 71.3088 10.2241C71.2482 4.8156 67.9456 1.34539 64.1106 0.655892L38.9753 0.725524ZM49.9194 2.27331V17.8215L59.7657 17.8927C62.0068 16.086 63.7044 14.7025 63.6365 10.3642C63.6044 6.8281 62.8578 3.74313 59.5619 2.27331H49.9194ZM86.5949 0.690708H98.0708L113.009 28.4108C113.656 30.5512 115.589 30.287 116.88 31.2255H102.416L104.59 30.5459L104.454 28.4819L100.719 22.5012L88.0208 22.5723L85.3049 28.3419C85.2143 28.9981 84.5123 29.4961 85.0331 30.3112L86.0522 31.2959L79.805 31.1551L82.5217 30.3112L92.7741 8.71193V7.23378L88.4423 1.45514L86.5949 0.690708ZM88.8236 20.5977L94.0977 10.6124L99.5888 20.5417L88.8236 20.5977ZM164.197 0.751257H175.672L190.611 28.4713C191.257 30.6117 193.191 30.3476 194.482 31.2861H180.017L182.191 30.6049L182.055 28.5409L178.32 22.5617L165.622 22.6329L162.906 28.4009C162.815 29.0586 162.114 29.5567 162.634 30.3718L163.653 31.3565L157.407 31.2157L160.123 30.3718L170.376 8.77248V7.29357L166.044 1.51569L164.197 0.751257ZM166.425 20.659L171.699 10.6737L177.191 20.6015L166.425 20.659ZM120.849 0.402344L141.292 0.515116C147.875 2.05684 152.064 6.07881 153.363 13.0949L153.308 18.567C152.108 24.8187 148.175 29.1321 141.238 31.3156L120.74 31.3731L120.737 30.7109C123.853 30.4755 124.102 30.1198 124.11 28.27V3.33518C124.075 1.96753 123.802 1.11606 120.794 1.02221L120.849 0.402344ZM132.469 2.53594L132.45 29.5135C135.146 29.5226 137.485 29.7754 138.806 29.101C141.801 27.7334 143.191 25.6331 143.319 23.6599L143.247 7.73028C143.248 5.18192 140.482 3.38286 138.885 2.91437C137.743 2.49128 135.465 2.47387 132.469 2.53594Z" fill="white" stroke="white" stroke-width="1.02419" stroke-miterlimit="2.613"/>
</g>
<defs>
<clipPath id="clip0_22_367">
<rect width="194" height="32" fill="white" transform="translate(0.481689)"/>
</clipPath>
</defs>
</svg>
