<svg width="34" height="12" viewBox="0 0 34 12" fill="none" xmlns="http://www.w3.org/2000/svg">
<path d="M17.0221 1.12148L14.8479 11.285H12.2188L14.3933 1.12148H17.0221ZM28.0838 7.68412L29.468 3.86736L30.2645 7.68412H28.0838ZM31.0172 11.285H33.4491L31.327 1.12148H29.0823C28.5779 1.12148 28.1523 1.41485 27.9628 1.86714L24.0184 11.285H26.7794L27.3275 9.76733H30.7007L31.0172 11.285ZM24.1554 7.96656C24.1667 5.28405 20.4458 5.1364 20.4715 3.93813C20.4792 3.57302 20.827 3.18571 21.5865 3.08631C21.9638 3.0371 23.0012 2.99946 24.1792 3.54149L24.6405 1.38622C24.0078 1.15654 23.1936 0.935547 22.1809 0.935547C19.5824 0.935547 17.7533 2.31717 17.7379 4.29552C17.7215 5.75853 19.0436 6.57496 20.0398 7.06134C21.0641 7.55963 21.4083 7.87874 21.4038 8.32427C21.397 9.00655 20.5867 9.307 19.8307 9.31891C18.5086 9.33982 17.7414 8.96216 17.1299 8.67715L16.6535 10.9042C17.2676 11.1863 18.4015 11.4314 19.5779 11.4439C22.3395 11.4439 24.1464 10.0794 24.1554 7.96656ZM13.2652 1.12148L9.00549 11.285H6.22584L4.12976 3.17381C4.00237 2.67424 3.89171 2.49152 3.50473 2.28082C2.87327 1.93823 1.82941 1.61623 0.911011 1.41678L0.973739 1.12148H5.44737C6.01739 1.12148 6.53047 1.50106 6.65979 2.15762L7.76702 8.03926L10.5029 1.12148H13.2652Z" fill="#1434CB"/>
</svg>
