<svg width="157" height="36" viewBox="0 0 157 36" fill="none" xmlns="http://www.w3.org/2000/svg">
<g clip-path="url(#clip0_22_365)">
<path d="M141.794 11.2935L141.502 11.3857C140.369 9.04217 138.749 7.17663 136.644 5.78905C134.571 4.40145 131.964 3.70765 128.822 3.70765C127.073 3.70765 125.405 4.06224 123.818 4.77142C122.231 5.44984 120.838 6.42116 119.64 7.68537C118.474 8.91877 117.534 10.4143 116.822 12.1719C116.109 13.9295 115.753 15.8722 115.753 17.9998C115.753 20.1274 116.109 22.07 116.822 23.8276C117.534 25.5852 118.474 27.0962 119.64 28.3604C120.838 29.5938 122.231 30.5497 123.818 31.2281C125.405 31.9065 127.073 32.2456 128.822 32.2456C131.931 32.2456 134.458 31.7831 136.401 30.858C138.377 29.9022 140.045 28.4529 141.405 26.5103L141.697 26.6025L141.6 29.5627C140.855 30.3028 139.997 30.9657 139.025 31.5516C138.053 32.1066 137.001 32.5845 135.867 32.9854C134.766 33.3554 133.616 33.633 132.418 33.818C131.219 34.034 130.021 34.142 128.822 34.142C126.328 34.142 123.948 33.7566 121.681 32.9857C119.413 32.2148 117.421 31.1355 115.705 29.7479C113.988 28.3296 112.628 26.6336 111.624 24.6602C110.62 22.6559 110.117 20.4357 110.117 17.9997C110.117 15.5637 110.62 13.359 111.624 11.3856C112.628 9.38128 113.988 7.66993 115.705 6.25154C117.421 4.8331 119.413 3.75386 121.681 3.01382C123.948 2.24291 126.328 1.85746 128.822 1.85746C130.021 1.85746 131.219 1.94997 132.418 2.13498C133.616 2.31999 134.766 2.61293 135.867 3.01382C137.001 3.38384 138.053 3.86179 139.025 4.44769C139.997 5.00272 140.855 5.65025 141.6 6.3903L141.794 11.2935ZM34.7337 20.1278C34.3776 20.2818 34.0375 20.4823 33.7134 20.7294C33.3893 20.9759 33.2273 21.3151 33.2273 21.747V27.4361C31.6726 29.5637 29.6807 31.2134 27.2515 32.3851C24.8223 33.5569 22.1339 34.1428 19.1865 34.1428C16.6925 34.1428 14.3119 33.7573 12.0447 32.9864C9.77742 32.2155 7.78547 31.1363 6.06882 29.7487C4.3522 28.3303 2.99183 26.6344 1.98774 24.661C0.983707 22.6567 0.481689 20.4365 0.481689 18.0005C0.481689 15.5645 0.983707 13.3598 1.98774 11.3864C2.99183 9.38204 4.3522 7.67068 6.06882 6.2523C7.78547 4.83386 9.77742 3.75463 12.0447 3.01461C14.3119 2.24369 16.6925 1.85822 19.1865 1.85822C20.3849 1.85822 21.5833 1.95073 22.7818 2.13574C23.9801 2.32075 25.1299 2.61369 26.2312 3.01458C27.3648 3.3846 28.4175 3.86255 29.3891 4.44845C30.3608 5.00348 31.2192 5.65101 31.9642 6.39105L32.1588 11.2938L31.8673 11.386C30.7337 9.0425 29.1142 7.17695 27.0089 5.78937C24.936 4.40177 22.3286 3.70797 19.1868 3.70797C17.4378 3.70797 15.7698 4.06257 14.1828 4.77177C12.5957 5.45017 11.2029 6.42148 10.0045 7.68569C8.83844 8.91912 7.89917 10.4146 7.18667 12.1723C6.47405 13.9299 6.11774 15.8725 6.11774 18.0001C6.11774 20.0969 6.45784 22.0241 7.13804 23.7817C7.85063 25.5393 8.78993 27.0503 9.95594 28.3145C11.1543 29.5479 12.547 30.5192 14.1341 31.2285C15.7212 31.9068 17.4055 32.246 19.1868 32.246C22.5554 32.246 25.438 31.6293 27.8348 30.3959V21.7466C27.8348 21.3151 27.6568 20.9759 27.3007 20.729C26.9766 20.4825 26.6527 20.282 26.329 20.1274L26.3734 19.8965C26.5351 19.9247 26.8267 19.9554 27.2479 19.9886C27.6692 20.0168 28.1064 20.0476 28.5597 20.0808H32.7381C33.1268 20.0526 33.4993 20.0219 33.8556 19.9886C34.2117 19.9604 34.4869 19.9297 34.6813 19.8965L34.7337 20.1278ZM69.9237 2.82921C69.5996 2.98319 69.2757 3.18372 68.952 3.43077C68.6279 3.67726 68.4499 4.13979 68.4179 4.81835C68.3883 5.55839 68.356 6.49887 68.321 7.63979C68.321 8.74988 68.3062 10.0141 68.2766 11.4325C68.2766 12.8509 68.2618 14.3927 68.2321 16.0578V21.2382C68.2025 23.2424 67.9433 24.9538 67.4545 26.3723C66.9687 27.7906 66.3209 28.9778 65.5112 29.9337C64.7339 30.8896 63.8593 31.6451 62.8876 32.2001C61.9483 32.7551 61.009 33.1714 60.0697 33.4489C59.1628 33.7574 58.3045 33.9425 57.4949 34.0039C56.6851 34.0964 56.0535 34.1427 55.6 34.1427C53.7539 34.1427 51.9724 33.9114 50.2557 33.4489C48.5391 33.0174 47.033 32.3082 45.7375 31.3212C44.4419 30.3345 43.4055 29.0549 42.6281 27.4823C41.8508 25.9097 41.4621 23.9979 41.4621 21.7469V16.5204V11.71C41.4621 10.2299 41.4473 8.90397 41.4177 7.73226C41.4177 6.52967 41.4028 5.55835 41.3732 4.81831C41.3436 4.13991 41.1656 3.67738 40.8391 3.43073C40.515 3.18423 40.1911 2.98371 39.8674 2.82917L39.9119 2.59818C40.0736 2.62638 40.3329 2.65711 40.6895 2.69037C41.0782 2.71857 41.4669 2.7493 41.8555 2.78255C42.2768 2.78255 42.6817 2.79665 43.0702 2.82486H44.8192C45.2079 2.79665 45.6127 2.78255 46.0337 2.78255C46.455 2.75435 46.8437 2.72362 47.1998 2.69037C47.5884 2.66217 47.8636 2.63144 48.0254 2.59818L48.0698 2.82917C47.7137 2.98315 47.3736 3.18368 47.0496 3.43073C46.7581 3.67722 46.596 4.13975 46.5634 4.81831C46.5338 5.55835 46.5015 6.52967 46.4666 7.73226V21.7469C46.4666 25.1079 47.2925 27.5902 48.9443 29.1936C50.5962 30.797 53.0416 31.5987 56.2806 31.5987C57.2198 31.5987 58.2887 31.4907 59.4871 31.2747C60.6856 31.0282 61.803 30.5348 62.8394 29.7946C63.9082 29.0546 64.799 28.0062 65.5115 26.6495C66.2565 25.2927 66.629 23.4888 66.629 21.2379C66.629 18.8019 66.6142 16.7205 66.5845 14.9937C66.5845 13.2361 66.5697 11.7406 66.5401 10.5072C66.5401 9.24294 66.5253 8.1637 66.4957 7.26945C66.466 6.37526 66.4337 5.55814 66.3988 4.81807C66.3691 4.13967 66.1911 3.67714 65.8646 3.43049C65.5405 3.18399 65.2167 2.98346 64.893 2.82889L64.9374 2.59794C65.2935 2.6594 65.6984 2.72116 66.152 2.78323C66.6052 2.81143 67.0263 2.82553 67.4152 2.82553C67.7713 2.82553 68.1761 2.81143 68.6298 2.78323C69.1156 2.72177 69.5367 2.66001 69.893 2.59794L69.9237 2.82921ZM105.178 11.2935L104.886 11.3857C103.753 9.04217 102.133 7.17663 100.028 5.78905C97.955 4.40145 95.3476 3.70765 92.2059 3.70765C90.4569 3.70765 88.7888 4.06224 87.2017 4.77142C85.6146 5.44984 84.2219 6.42116 83.0235 7.68537C81.8575 8.91877 80.9182 10.4143 80.2056 12.1719C79.4931 13.9296 79.1368 15.8722 79.1368 17.9998C79.1368 20.1274 79.4931 22.07 80.2056 23.8276C80.9183 25.5852 81.8576 27.0962 83.0235 28.3604C84.2219 29.5938 85.6146 30.5497 87.2017 31.2281C88.7888 31.9065 90.4569 32.2456 92.2059 32.2456C95.3153 32.2456 97.8417 31.7831 99.785 30.858C101.761 29.9022 103.429 28.4529 104.789 26.5103L105.081 26.6025L104.984 29.5627C104.239 30.3027 103.38 30.9657 102.409 31.5515C101.437 32.1065 100.384 32.5845 99.2508 32.9854C98.1496 33.3554 96.9998 33.6329 95.8013 33.8179C94.6029 34.034 93.4045 34.142 92.2062 34.142C89.7121 34.142 87.3315 33.7565 85.0643 32.9856C82.797 32.2147 80.8051 31.1355 79.0885 29.7479C77.3718 28.3295 76.0114 26.6336 75.0074 24.6601C74.0033 22.6558 73.5013 20.4357 73.5013 17.9997C73.5013 15.5637 74.0033 13.359 75.0074 11.3856C76.0114 9.38125 77.3718 7.66989 79.0885 6.2515C80.8051 4.83306 82.797 3.75382 85.0643 3.01378C87.3315 2.24287 89.7122 1.85742 92.2062 1.85742C93.4045 1.85742 94.6029 1.94993 95.8013 2.13494C96.9998 2.31995 98.1496 2.61289 99.2508 3.01378C100.384 3.3838 101.437 3.86175 102.409 4.44765C103.38 5.00268 104.239 5.65021 104.984 6.39026L105.178 11.2935ZM156.437 33.3561C156.275 33.3279 156 33.2972 155.612 33.2639C155.256 33.2639 154.867 33.2498 154.446 33.2216C154.024 33.2216 153.619 33.2075 153.231 33.1793H150.316C149.928 33.2075 149.539 33.2382 149.15 33.2715C148.794 33.2997 148.519 33.3304 148.325 33.3637L148.28 33.1783C148.604 33.0243 148.928 32.8238 149.252 32.5768C149.576 32.3303 149.754 31.8678 149.786 31.1892C149.816 30.4492 149.83 29.6783 149.83 28.8766C149.86 28.0748 149.875 27.1652 149.875 26.1476V22.6786V18.0071V13.3356V9.82037C149.875 8.80282 149.86 7.90858 149.83 7.13768C149.83 6.33597 149.816 5.56509 149.786 4.82505C149.756 4.14665 149.578 3.68413 149.252 3.43747C148.928 3.15996 148.604 2.94419 148.28 2.79018L148.325 2.60493C148.519 2.66638 148.794 2.71264 149.15 2.74368C149.539 2.74368 149.928 2.75778 150.316 2.78599C150.737 2.81419 151.142 2.82829 151.531 2.82829H153.231C153.62 2.80009 154.025 2.78599 154.446 2.78599C154.867 2.75778 155.256 2.72706 155.612 2.6938C156 2.6656 156.275 2.63487 156.437 2.60161L156.482 2.78694C156.126 2.94093 155.786 3.15669 155.461 3.4342C155.17 3.6807 155.008 4.14322 154.975 4.82178C154.946 5.56182 154.913 6.3327 154.878 7.13441V28.8733C154.908 29.675 154.94 30.4459 154.975 31.1859C155.005 31.8643 155.167 32.3268 155.461 32.5735C155.786 32.82 156.126 33.0205 156.482 33.1751L156.437 33.3561Z" fill="white"/>
</g>
<defs>
<clipPath id="clip0_22_365">
<rect width="156" height="36" fill="white" transform="translate(0.481689)"/>
</clipPath>
</defs>
</svg>
